<svg width="24" height="24" viewBox="0 0 24 24" fill="none" xmlns="http://www.w3.org/2000/svg">
<g clip-path="url(#clip0_6_24)">
<path d="M14.131 0.0469971C13.958 0.0469971 13.797 0.0839971 13.648 0.133997C13.964 0.343997 14.138 0.623997 14.224 0.939997C14.231 0.982997 14.243 1.014 14.249 1.057C14.2565 1.09391 14.2608 1.13137 14.262 1.169C14.286 1.714 14.119 1.783 14.002 2.105C13.822 2.52 13.872 2.966 14.088 3.325C14.1078 3.37314 14.1326 3.41906 14.162 3.462C13.927 1.894 15.235 1.659 15.476 1.169C15.495 0.740997 15.142 0.455997 14.863 0.257997C14.6438 0.120226 14.39 0.0474128 14.131 0.0479971V0.0469971ZM16.102 0.399997C16.078 0.542997 16.096 0.505997 16.09 0.579997C16.084 0.629997 16.084 0.691997 16.078 0.740997C16.065 0.790997 16.053 0.840997 16.034 0.889997C16.022 0.939997 16.004 0.989997 15.984 1.039L15.917 1.181C15.897 1.206 15.886 1.231 15.867 1.256L15.83 1.311C15.8005 1.35343 15.7695 1.39479 15.737 1.435C15.7 1.473 15.669 1.516 15.625 1.547V1.553C15.588 1.584 15.551 1.621 15.507 1.653C15.377 1.752 15.229 1.826 15.092 1.919C15.049 1.949 15.005 1.975 14.968 2.012C14.926 2.04159 14.8865 2.07471 14.85 2.111C14.807 2.148 14.776 2.185 14.739 2.229C14.708 2.266 14.671 2.309 14.646 2.353C14.6149 2.39487 14.5859 2.43826 14.559 2.483C14.534 2.533 14.516 2.576 14.491 2.625C14.472 2.675 14.454 2.718 14.441 2.768C14.4246 2.81907 14.4103 2.87078 14.398 2.923C14.392 2.948 14.392 2.979 14.386 3.003C14.379 3.028 14.379 3.053 14.373 3.078C14.373 3.128 14.367 3.183 14.367 3.233C14.367 3.27 14.367 3.307 14.373 3.344C14.373 3.394 14.379 3.444 14.392 3.499C14.398 3.549 14.41 3.599 14.422 3.649C14.442 3.698 14.454 3.747 14.472 3.797C14.485 3.827 14.503 3.859 14.516 3.884L13.09 3.332C12.849 3.264 12.613 3.202 12.371 3.146L11.981 3.053C11.609 2.979 11.231 2.923 10.853 2.886C10.84 2.886 10.834 2.88 10.822 2.88C10.1833 2.81601 9.54022 2.80765 8.90004 2.855C8.52204 2.88 8.14404 2.929 7.76604 2.991C7.48513 3.0394 7.20596 3.09743 6.92904 3.165L6.65004 3.239C6.55804 3.276 6.47004 3.319 6.38404 3.357L6.17904 3.45C6.16704 3.456 6.15504 3.456 6.14904 3.462C6.08604 3.493 6.03104 3.518 5.97504 3.549C5.89452 3.58451 5.81576 3.62389 5.73904 3.667C5.69604 3.685 5.65304 3.71 5.61504 3.729C5.59728 3.74002 5.57892 3.75003 5.56004 3.759C5.50404 3.791 5.44804 3.822 5.39804 3.853C5.347 3.88121 5.29759 3.91226 5.25004 3.946C5.20604 3.976 5.16304 4.001 5.12604 4.032C5.12004 4.039 5.11304 4.039 5.10704 4.045C5.07004 4.07 5.02704 4.101 4.98904 4.132L4.97704 4.144L4.88404 4.218C4.87204 4.225 4.85904 4.237 4.84704 4.243C4.81604 4.268 4.78504 4.299 4.75404 4.323C4.74804 4.336 4.73504 4.343 4.72904 4.348C4.69204 4.386 4.65504 4.417 4.61804 4.454C4.61104 4.454 4.61104 4.46 4.60504 4.466C4.5665 4.49968 4.52946 4.53505 4.49404 4.572C4.48704 4.578 4.48704 4.584 4.48104 4.584C4.44849 4.61586 4.41745 4.64923 4.38804 4.684C4.37604 4.696 4.35804 4.708 4.34504 4.72C4.31183 4.75929 4.27644 4.79668 4.23904 4.832C4.23304 4.844 4.22104 4.851 4.21504 4.862C4.16504 4.912 4.12204 4.962 4.07204 5.012L4.05404 5.03C3.95404 5.136 3.84904 5.241 3.73704 5.334C3.62604 5.434 3.50804 5.526 3.39004 5.607C3.15311 5.77623 2.89742 5.9175 2.62804 6.028C2.49804 6.084 2.36104 6.134 2.22504 6.177C1.96504 6.233 1.69804 6.338 1.46904 6.357C1.41904 6.357 1.36404 6.369 1.31404 6.375L1.15904 6.412L1.01004 6.468C0.960037 6.487 0.911037 6.512 0.862037 6.536C0.818037 6.567 0.769037 6.592 0.725037 6.623C0.680916 6.65493 0.639448 6.69038 0.601037 6.729C0.558037 6.759 0.514037 6.803 0.477037 6.84C0.440037 6.883 0.403037 6.92 0.372037 6.964C0.341037 7.014 0.304037 7.057 0.279037 7.107C0.246465 7.15205 0.217381 7.19952 0.192037 7.249C0.167037 7.305 0.142037 7.355 0.124037 7.41C0.105037 7.46 0.0870374 7.516 0.0680374 7.571C0.0560374 7.621 0.0430374 7.671 0.0380374 7.721C0.0380374 7.726 0.0310374 7.733 0.0310374 7.739C0.0190374 7.795 0.0190374 7.869 0.0120374 7.906C0.00603739 7.95 3.73942e-05 7.986 3.73942e-05 8.03C-0.00111312 8.13784 0.0243013 8.2443 0.0740374 8.34V8.346C0.0930374 8.383 0.118037 8.421 0.143037 8.458C0.167037 8.495 0.193037 8.532 0.223037 8.569C0.254037 8.6 0.291037 8.638 0.329037 8.669C0.365171 8.70524 0.404311 8.73836 0.446037 8.768C0.595037 8.898 0.632037 8.941 0.824037 9.04C0.855037 9.059 0.886037 9.071 0.924037 9.09C0.930037 9.09 0.936037 9.096 0.942037 9.096C0.942037 9.109 0.942037 9.115 0.948037 9.127C0.962513 9.22921 0.989377 9.32928 1.02804 9.425C1.04804 9.462 1.06004 9.499 1.07804 9.536C1.08504 9.549 1.09104 9.561 1.09804 9.567C1.12204 9.617 1.14704 9.66 1.17104 9.704L1.26404 9.834C1.29504 9.871 1.33304 9.914 1.37004 9.952C1.40704 9.989 1.44404 10.02 1.48804 10.057C1.48804 10.057 1.49404 10.063 1.50004 10.063C1.53704 10.094 1.57404 10.125 1.61204 10.15C1.65516 10.1803 1.70064 10.207 1.74804 10.23C1.79104 10.255 1.84104 10.28 1.89004 10.299C1.93 10.317 1.9715 10.3314 2.01404 10.342C2.02104 10.348 2.02704 10.348 2.03904 10.354C2.06404 10.361 2.09504 10.367 2.11904 10.373C2.10104 10.708 2.09504 11.023 2.14504 11.135C2.20004 11.259 2.47304 10.881 2.74504 10.447C2.70904 10.875 2.68404 11.377 2.74504 11.526C2.81404 11.681 3.18504 11.197 3.50804 10.664C7.90304 9.648 11.913 12.684 12.334 16.974C12.254 16.304 11.429 15.933 11.051 16.026C10.865 16.484 10.549 17.073 10.041 17.439C10.084 17.029 10.066 16.609 9.97904 16.199C9.84022 16.7697 9.5777 17.3029 9.21004 17.761C8.62204 17.804 8.03304 17.519 7.72304 17.091C7.69804 17.073 7.69204 17.036 7.67304 17.011C7.65504 16.968 7.63604 16.924 7.62304 16.881C7.60505 16.8395 7.59261 16.7958 7.58604 16.751C7.58004 16.707 7.58004 16.664 7.58004 16.614V16.521C7.58744 16.477 7.59779 16.4336 7.61104 16.391C7.62404 16.348 7.63604 16.305 7.65504 16.261C7.67904 16.218 7.69804 16.174 7.72904 16.131C7.83404 15.833 7.83404 15.591 7.64204 15.449C7.60475 15.4247 7.56524 15.4039 7.52404 15.387C7.50004 15.381 7.46904 15.369 7.44404 15.362L7.39404 15.344C7.35159 15.3303 7.30812 15.3199 7.26404 15.313C7.2218 15.3006 7.17804 15.2942 7.13404 15.294C7.08903 15.2869 7.04359 15.2829 6.99804 15.282C6.96704 15.282 6.93604 15.288 6.90504 15.288C6.8587 15.2877 6.81256 15.2941 6.76804 15.307C6.72504 15.313 6.68204 15.319 6.63804 15.331C6.59381 15.3429 6.55038 15.3576 6.50804 15.375C6.46504 15.393 6.42804 15.412 6.38404 15.431C6.34704 15.449 6.31004 15.474 6.26604 15.493C4.82204 16.435 5.68404 18.641 6.66904 19.28C6.29704 19.348 5.91904 19.428 5.81404 19.509L5.80104 19.521C6.06804 19.682 6.34704 19.819 6.63804 19.937C7.03504 20.067 7.45604 20.184 7.64204 20.234V20.24C8.15557 20.3455 8.68071 20.3831 9.20404 20.352C11.95 20.16 14.2 18.071 14.609 15.319L14.646 15.48C14.665 15.592 14.689 15.71 14.702 15.827V15.833C14.714 15.889 14.72 15.945 14.727 15.995V16.019C14.733 16.075 14.739 16.131 14.739 16.181C14.745 16.249 14.751 16.317 14.751 16.385V16.485C14.751 16.515 14.758 16.552 14.758 16.583C14.758 16.621 14.751 16.658 14.751 16.695V16.782C14.751 16.825 14.745 16.862 14.745 16.906C14.745 16.931 14.745 16.956 14.739 16.986C14.739 17.03 14.733 17.073 14.733 17.123C14.727 17.141 14.727 17.16 14.727 17.178L14.707 17.321C14.707 17.34 14.707 17.358 14.702 17.377C14.695 17.439 14.683 17.495 14.677 17.557V17.569L14.64 17.743V17.761L14.603 17.928C14.603 17.935 14.596 17.948 14.596 17.953C14.5846 18.0097 14.5703 18.0658 14.553 18.121V18.139C14.534 18.201 14.516 18.257 14.503 18.313C14.497 18.319 14.497 18.325 14.497 18.325L14.441 18.511C14.417 18.573 14.398 18.629 14.373 18.691C14.348 18.753 14.33 18.815 14.305 18.871C14.28 18.933 14.255 18.988 14.231 19.051H14.224C14.2 19.106 14.174 19.168 14.144 19.224C14.1388 19.2388 14.1325 19.2532 14.125 19.267C14.119 19.273 14.119 19.28 14.113 19.286C13.7031 20.1066 13.1065 20.8197 12.371 21.368C12.321 21.399 12.272 21.437 12.222 21.474C12.21 21.486 12.192 21.492 12.179 21.504C12.1347 21.5368 12.0894 21.5681 12.043 21.598L12.061 21.635H12.068L12.328 21.598H12.334C12.495 21.573 12.656 21.542 12.817 21.511C12.861 21.505 12.91 21.492 12.954 21.48L13.041 21.461C13.084 21.455 13.127 21.443 13.171 21.437C13.208 21.424 13.245 21.417 13.282 21.406C13.902 21.256 14.503 21.052 15.08 20.811C14.0839 22.1678 12.759 23.249 11.23 23.953C11.944 23.903 12.656 23.786 13.344 23.587C15.8342 22.8548 17.9375 21.1743 19.201 18.907C18.9458 20.3423 18.3766 21.7034 17.534 22.893C18.1348 22.4968 18.6898 22.0353 19.189 21.517C20.5764 20.0686 21.4872 18.2303 21.799 16.249C22.009 17.229 22.071 18.239 21.979 19.236C26.453 12.995 22.35 6.524 20.633 4.82C20.627 4.807 20.621 4.801 20.621 4.789C20.615 4.795 20.615 4.795 20.615 4.801C20.615 4.795 20.615 4.795 20.608 4.789C20.608 4.863 20.602 4.937 20.596 5.012C20.5789 5.15083 20.5582 5.28921 20.534 5.427C20.504 5.563 20.466 5.7 20.429 5.837C20.385 5.967 20.336 6.103 20.279 6.233C20.2224 6.36139 20.1607 6.48749 20.094 6.611C19.9557 6.85396 19.796 7.0842 19.617 7.299C19.524 7.41 19.425 7.509 19.325 7.609C19.2666 7.66244 19.2066 7.71413 19.145 7.764L19.003 7.888C18.8924 7.97533 18.7765 8.05581 18.656 8.129C18.5376 8.20529 18.4154 8.27571 18.29 8.34C18.16 8.402 18.03 8.458 17.9 8.514C17.6353 8.6147 17.3613 8.68939 17.082 8.737C16.939 8.762 16.797 8.774 16.66 8.787C16.5612 8.79399 16.4621 8.79799 16.363 8.799C16.2221 8.79705 16.0813 8.78871 15.941 8.774C15.7995 8.76288 15.6588 8.74217 15.52 8.712C15.3795 8.68649 15.2408 8.65141 15.105 8.607H15.098C15.235 8.594 15.371 8.582 15.508 8.557C15.7871 8.50861 16.061 8.43395 16.326 8.334C16.462 8.284 16.592 8.222 16.716 8.16C16.846 8.098 16.964 8.03 17.088 7.956C17.206 7.876 17.323 7.795 17.435 7.708C17.547 7.621 17.652 7.528 17.751 7.429C17.856 7.336 17.949 7.231 18.042 7.125C18.135 7.014 18.222 6.902 18.302 6.791C18.315 6.772 18.328 6.747 18.34 6.729C18.402 6.629 18.464 6.53 18.52 6.431C18.6567 6.18432 18.7686 5.92472 18.854 5.656C18.898 5.526 18.929 5.39 18.96 5.253C18.985 5.111 19.01 4.975 19.022 4.838C19.034 4.696 19.047 4.553 19.047 4.417C19.047 4.317 19.04 4.218 19.034 4.119C19.0217 3.98018 19.005 3.84178 18.984 3.704C18.9599 3.56429 18.9292 3.4258 18.892 3.289C18.848 3.159 18.805 3.022 18.755 2.892C18.705 2.762 18.644 2.632 18.582 2.508C18.513 2.384 18.445 2.26 18.371 2.142C18.2919 2.02615 18.2092 1.91276 18.123 1.802C18.03 1.696 17.937 1.59 17.838 1.485C17.7859 1.43179 17.7322 1.38011 17.677 1.33C17.397 1.113 17.107 0.908997 16.815 0.722997C16.775 0.699864 16.7336 0.67916 16.691 0.660997C16.5072 0.548431 16.3091 0.459987 16.102 0.399997Z" fill="#062628"/>
</g>
<defs>
<clipPath id="clip0_6_24">
<rect width="24" height="24" fill="white"/>
</clipPath>
</defs>
</svg>
